HIERARCHY
ROOT Hips
{
    OFFSET 0.000000 0.000000 0.000000
    CHANNELS 6 Xposition Yposition Zposition Zrotation Xrotation Yrotation
    JOINT Spine
    {
        OFFSET -0.000000 0.068295 0.000000
        CHANNELS 3 Zrotation Xrotation Yrotation
        JOINT Spine1
        {
            OFFSET -0.000000 0.198479 0.000000
            CHANNELS 3 Zrotation Xrotation Yrotation
            JOINT Neck
            {
                OFFSET -0.000000 0.215136 0.000000
                CHANNELS 3 Zrotation Xrotation Yrotation
                JOINT Head
                {
                    OFFSET -0.000000 0.090366 0.016657
                    CHANNELS 3 Zrotation Xrotation Yrotation
                    End Site
                    {
                        OFFSET -0.000000 0.166573 0.000000
                    }
                }
            }
            JOINT LeftShoulder
            {
                OFFSET 0.033522 0.175145 -0.001055
                CHANNELS 3 Zrotation Xrotation Yrotation
                JOINT LeftArm
                {
                    OFFSET 0.121214 0.000000 0.000000
                    CHANNELS 3 Zrotation Xrotation Yrotation
                    JOINT LeftForeArm
                    {
                        OFFSET 0.261115 0.000000 0.000000
                        CHANNELS 3 Zrotation Xrotation Yrotation
                        JOINT LeftHand
                        {
                            OFFSET 0.230096 0.000000 0.000000
                            CHANNELS 3 Zrotation Xrotation Yrotation
                            End Site
                            {
                                OFFSET 0.000000 -0.124930 0.000000
                            }
                        }
                    }
                }
            }
            JOINT RightShoulder
            {
                OFFSET -0.033103 0.175145 -0.001055
                CHANNELS 3 Zrotation Xrotation Yrotation
                JOINT RightArm
                {
                    OFFSET -0.121214 0.000000 0.000000
                    CHANNELS 3 Zrotation Xrotation Yrotation
                    JOINT RightForeArm
                    {
                        OFFSET -0.261115 0.000000 0.000000
                        CHANNELS 3 Zrotation Xrotation Yrotation
                        JOINT RightHand
                        {
                            OFFSET -0.230096 0.000000 0.000000
                            CHANNELS 3 Zrotation Xrotation Yrotation
                            End Site
                            {
                                OFFSET -0.000000 -0.124930 0.000000
                            }
                        }
                    }
                }
            }
        }
    }
    JOINT LeftUpLeg
    {
        OFFSET 0.083287 0.000000 0.000000
        CHANNELS 3 Zrotation Xrotation Yrotation
        JOINT LeftLeg
        {
            OFFSET -0.000000 -0.281128 0.000000
            CHANNELS 3 Zrotation Xrotation Yrotation
            JOINT LeftFoot
            {
                OFFSET -0.000000 -0.491911 0.000000
                CHANNELS 3 Zrotation Xrotation Yrotation
                JOINT LeftToeBase
                {
                    OFFSET -0.000000 -0.054136 0.124930
                    CHANNELS 3 Zrotation Xrotation Yrotation
                    End Site
                    {
                        OFFSET -0.000000 0.000000 0.033315
                    }
                }
            }
        }
    }
    JOINT RightUpLeg
    {
        OFFSET -0.083287 0.000000 0.000000
        CHANNELS 3 Zrotation Xrotation Yrotation
        JOINT RightLeg
        {
            OFFSET -0.000000 -0.281128 0.000000
            CHANNELS 3 Zrotation Xrotation Yrotation
            JOINT RightFoot
            {
                OFFSET -0.000000 -0.491911 0.000000
                CHANNELS 3 Zrotation Xrotation Yrotation
                JOINT RightToeBase
                {
                    OFFSET -0.000000 -0.054136 0.124930
                    CHANNELS 3 Zrotation Xrotation Yrotation
                    End Site
                    {
                        OFFSET -0.000000 0.000000 0.033315
                    }
                }
            }
        }
    }
}
MOTION
Frames:    13
Frame Time:    0.010000
0.613318    0.803233    0.090196    -4.611126    4.762538    -102.547241    1.348685    2.617169    3.912727    4.894803    11.064154    0.841874    1.829728    -10.549063    -0.860483    -5.227250    -4.365358    -0.341214    -3.974045    8.640496    -0.479847    -53.993458    60.384197    -27.082624    16.657877    -11.480021    -16.058075    97.795944    -6.700191    9.608618    3.034511    5.096472    6.171992    54.725384    40.901115    18.634764    -1.528710    -1.206912    11.338226    -102.240433    -8.709255    -1.990793    1.358273    16.899008    16.369734    -3.145743    8.152205    -2.707272    4.605787    -25.572237    41.770267    0.000000    0.000000    0.000000    8.869861    -7.176186    4.937281    0.090227    13.624518    -5.450764    -3.193561    -17.092657    -32.467606    0.000000    0.000000    0.000000    
0.617666    0.802939    0.092802    -4.601402    4.845498    -102.691002    1.134806    2.830203    3.901849    4.986407    10.927278    0.834612    1.954477    -10.492791    -0.884164    -4.962708    -4.781996    -0.401978    -4.016270    8.710876    -0.448858    -53.539181    60.209675    -27.438236    16.473738    -11.338551    -16.158527    97.880692    -6.776421    9.487887    3.152856    5.120846    6.136163    54.560558    41.227341    18.802443    -1.905662    -1.214648    11.477325    -102.143219    -8.867145    -1.968232    0.986885    17.085924    16.638258    -3.077211    7.181023    -2.401262    4.139561    -25.930283    41.243042    0.000000    0.000000    0.000000    8.872723    -7.430987    4.871763    -0.024433    13.409698    -5.399348    -3.034428    -17.405651    -32.311298    0.000000    0.000000    0.000000    
0.621919    0.802640    0.095425    -4.586717    4.939986    -102.882759    1.009093    2.937157    3.913701    4.981781    10.953665    0.837164    2.077446    -10.560577    -0.944008    -4.938811    -4.685597    -0.458392    -3.596159    7.967042    -0.517704    -54.627281    60.525394    -26.521477    16.525618    -10.781464    -16.023304    97.444382    -6.681398    8.907068    3.236737    5.216521    6.136055    54.453217    40.825825    18.911158    -1.834759    -0.890094    11.939234    -102.642311    -8.818119    -1.677046    0.643025    17.315302    16.764290    -3.061852    6.239112    -2.477907    4.938710    -24.715773    42.713085    0.000000    0.000000    0.000000    8.995116    -7.735891    4.839452    -0.326954    13.395538    -5.206590    -2.994963    -17.390480    -32.352779    0.000000    0.000000    0.000000    
0.626358    0.802272    0.098100    -4.525620    5.029002    -103.083374    1.032472    2.726726    3.883595    4.751164    11.480970    0.826724    2.153126    -10.993890    -0.790056    -4.616939    -4.056707    -0.308267    -3.690734    8.299084    -0.698116    -53.417797    60.067059    -27.414948    16.596748    -10.934907    -16.232622    97.433052    -6.547295    9.011271    2.916174    4.342607    6.364805    55.480522    40.741875    18.242834    -1.796886    -0.512671    12.226521    -102.527687    -8.893687    -1.298530    0.210149    17.444633    16.981247    -3.016737    5.326408    -2.462003    4.093795    -25.142982    43.043930    0.000000    0.000000    0.000000    8.961104    -7.935765    4.799403    -0.222488    13.058208    -5.422664    -2.958941    -17.171509    -32.514881    0.000000    0.000000    0.000000    
0.630727    0.802092    0.100526    -4.500562    5.210375    -103.312157    0.927557    2.845629    3.925216    4.829381    11.525743    0.830385    2.234900    -11.016544    -0.931495    -4.655756    -4.236498    -0.455675    -3.427804    7.829683    -0.718335    -54.039845    60.125759    -26.906239    16.356003    -10.942594    -16.331778    97.652451    -6.656437    9.059241    3.081976    5.057113    6.367575    54.605335    40.400684    19.063675    -1.920547    -0.490561    12.827580    -102.649200    -8.859643    -1.258692    0.129315    18.048040    16.681269    -3.456281    3.920946    -2.339277    4.264776    -24.154638    44.140144    0.000000    0.000000    0.000000    9.130111    -8.079315    4.800921    -0.475260    12.836369    -5.043926    -3.008892    -17.042599    -32.696224    0.000000    0.000000    0.000000    
0.635272    0.801578    0.103139    -4.335993    5.295273    -103.570808    0.816521    2.818842    3.999386    4.771844    11.565620    0.858200    2.490710    -10.994321    -1.061192    -4.992612    -4.161206    -0.546004    -3.234199    7.855226    -0.866989    -53.610458    60.504570    -27.373825    16.733500    -11.120890    -16.040276    97.485779    -6.500437    9.207414    2.874435    4.571153    6.458426    54.992413    41.813877    18.944498    -2.666655    -1.064031    12.758812    -102.191505    -9.064727    -1.735958    -0.188880    17.982414    16.772045    -3.120814    3.209230    -2.459875    5.021466    -24.484978    43.073715    0.000000    0.000000    0.000000    9.154329    -8.416596    4.824291    -0.497000    12.590554    -4.974741    -3.041741    -16.973307    -32.848919    0.000000    0.000000    0.000000    
0.639141    0.801215    0.105559    -4.379417    5.435039    -103.782249    0.700432    2.896044    4.014402    4.761778    11.710443    0.857496    2.528174    -11.199090    -0.982371    -4.493286    -4.101558    -0.512244    -3.320537    7.713076    -0.808485    -53.359379    60.444111    -27.368258    16.862116    -10.660620    -15.926522    97.151176    -7.024935    8.756416    2.889878    4.658932    6.541872    54.799900    41.693409    19.068859    -2.619400    -0.954854    13.357882    -102.407570    -9.035626    -1.632271    -0.319431    18.614471    16.400621    -3.396734    1.928499    -2.332175    4.996829    -24.737373    42.916180    0.000000    0.000000    0.000000    9.157880    -8.330285    4.787802    -0.512325    12.097407    -4.874553    -3.027150    -17.015585    -32.871040    0.000000    0.000000    0.000000    
0.643666    0.801178    0.107761    -4.278297    5.525013    -104.122337    0.491079    2.952917    4.110590    4.791498    11.732937    0.883922    2.657487    -11.166185    -1.035753    -4.415680    -4.403370    -0.581330    -3.553573    8.100555    -0.829965    -52.177361    60.261963    -28.145370    17.017412    -10.333156    -15.903442    97.714333    -6.360313    8.397981    2.954623    4.644876    6.594798    54.732182    41.289082    18.966105    -2.558676    -0.396367    14.132641    -102.317635    -9.014371    -1.053832    -0.269728    18.966711    15.913973    -4.061897    0.878539    -2.436086    4.725535    -24.735136    44.517548    0.000000    0.000000    0.000000    9.262829    -8.463492    4.999123    -0.559987    11.766655    -4.880377    -3.077826    -16.532454    -33.172897    0.000000    0.000000    0.000000    
0.647657    0.801150    0.110113    -4.289058    5.485932    -104.462082    0.149344    3.002153    4.246273    4.780216    11.821889    0.923797    2.720113    -11.452270    -0.945440    -4.072344    -3.833114    -0.504106    -3.458794    7.996860    -0.882510    -52.264259    60.081749    -27.938498    16.995867    -10.490694    -15.918056    97.192276    -7.178391    8.579869    2.955525    4.680543    6.685482    54.540016    41.530575    19.144220    -2.622750    -0.523909    14.585793    -102.369385    -9.006671    -1.166075    -1.162936    18.751081    16.974720    -2.949521    0.434485    -2.215290    4.630912    -25.377941    42.280041    0.000000    0.000000    0.000000    9.085983    -8.450015    5.157386    -0.387297    11.249882    -5.082504    -3.040432    -16.433371    -33.369499    0.000000    0.000000    0.000000    
0.651566    0.801565    0.112330    -4.305799    5.425670    -104.820854    -0.235240    3.046571    4.389803    4.807435    11.930925    0.960671    3.104583    -11.068305    -1.376181    -4.832291    -4.729324    -0.891458    -3.335858    7.590679    -0.856109    -52.838230    59.832748    -27.239424    16.642311    -10.183462    -16.048389    97.456596    -7.298434    8.325889    3.090415    4.599922    6.651687    53.515980    44.436256    20.254211    -3.888829    -1.890867    13.877275    -101.932396    -9.309286    -2.392661    -0.652896    19.264368    15.854816    -4.414004    -0.487761    -1.802224    5.612741    -24.368786    43.432320    0.000000    0.000000    0.000000    8.999538    -8.469706    5.273152    -0.582484    10.853649    -4.844065    -3.089107    -16.602303    -33.506035    0.000000    0.000000    0.000000    
0.655339    0.802092    0.114492    -4.304666    5.314311    -105.224754    -0.602289    3.074506    4.550073    4.717270    11.929617    1.020503    3.032112    -11.342783    -1.120574    -3.922069    -4.260841    -0.701719    -3.421501    7.435037    -0.856854    -52.674324    60.045403    -26.980862    16.724438    -10.978823    -16.063684    96.483498    -7.910735    9.085203    3.101118    4.631154    6.775200    53.679756    43.835136    20.002846    -3.626748    -1.382444    14.702616    -101.963036    -9.244274    -1.885235    -0.821908    19.458220    15.882236    -4.701821    -1.224727    -0.502355    9.513719    -16.441658    48.625935    0.000000    0.000000    0.000000    8.849048    -8.390299    5.424060    -0.599121    10.388541    -4.809174    -3.173192    -16.203331    -33.807232    0.000000    0.000000    0.000000    
0.659095    0.802607    0.116618    -4.241820    5.226564    -105.611259    -0.467501    3.343517    4.715052    3.744956    11.372048    1.196580    3.480552    -11.109892    -1.092758    -3.647281    -3.909671    -0.665790    -2.840914    7.818326    -0.874622    -52.623070    59.534157    -26.859642    16.380821    -10.886065    -16.368998    96.527466    -7.776950    8.991794    3.507700    4.925280    6.626139    53.400364    44.100231    20.411596    -3.521284    -1.201996    14.988399    -101.785522    -9.311510    -1.701857    -0.976424    19.281326    16.072756    -4.918136    -1.407281    -1.680016    9.829647    -15.739687    50.116570    0.000000    0.000000    0.000000    8.641634    -8.360429    5.555322    -0.387866    9.808132    -5.181499    -3.180283    -16.011341    -33.977303    0.000000    0.000000    0.000000    
0.662614    0.803258    0.118531    -4.173442    5.292787    -105.929459    -0.704253    3.211134    4.793212    3.908832    11.575437    1.197025    3.623574    -10.689471    -1.477892    -4.348932    -4.661534    -1.006649    -3.227323    7.878810    -0.744606    -51.904659    59.494820    -27.081499    16.410591    -11.359910    -16.578770    95.733192    -7.684590    9.375431    3.295357    4.985136    6.697778    53.081848    44.734119    20.913979    -3.833662    -1.301431    15.091996    -101.661911    -9.342029    -1.749625    -1.129539    19.099892    16.234745    -5.295959    -1.635095    -1.808467    4.304153    -23.718941    45.811737    0.000000    0.000000    0.000000    8.699545    -8.264907    5.446639    -0.563163    9.279666    -4.865814    -3.348007    -15.869712    -34.439957    0.000000    0.000000    0.000000    
